<?xml version="1.0" standalone="no"?>
<!DOCTYPE svg PUBLIC "-//W3C//DTD SVG 20010904//EN"
 "http://www.w3.org/TR/2001/REC-SVG-20010904/DTD/svg10.dtd">
<svg version="1.0" xmlns="http://www.w3.org/2000/svg"
 width="940.000000pt" height="940.000000pt" viewBox="0 0 940.000000 940.000000"
 preserveAspectRatio="xMidYMid meet">
<metadata>
Created by potrace 1.11, written by Peter Selinger 2001-2013
</metadata>
<g transform="translate(0.000000,940.000000) scale(0.100000,-0.100000)"
fill="#000000" stroke="none">
<path d="M715 8955 c-376 -69 -664 -375 -703 -745 -10 -94 -8 -6979 2 -7040
61 -377 337 -659 707 -723 60 -11 839 -13 4009 -12 l3935 2 80 21 c84 23 240
95 289 134 76 60 104 86 137 123 46 51 101 130 128 183 32 63 77 194 73 213
-1 4 4 22 10 40 13 41 18 6953 5 7064 -44 379 -334 678 -717 741 -122 20
-7847 19 -7955 -1z"/>
</g>
</svg>
